<svg xmlns="http://www.w3.org/2000/svg" version="1.1" xmlns:xlink="http://www.w3.org/1999/xlink" xmlns:svgjs="http://svgjs.com/svgjs" width="32" height="32" x="0" y="0" viewBox="0 0 511.734 511.734" style="enable-background:new 0 0 512 512" xml:space="preserve" class=""><g><circle xmlns="http://www.w3.org/2000/svg" cx="457.003" cy="122.943" r="10" fill="#ffffff" data-original="#ffffff"></circle><path xmlns="http://www.w3.org/2000/svg" d="m7.8 377.137 92.626 20.917-29.875 29.878c-3.904 3.906-3.903 10.237.002 14.142 3.906 3.904 10.236 3.905 14.143-.001l29.312-29.315 20.592 91.178c1.732 7.677 11.25 10.415 16.807 4.886l42.65-42.43c1.887-1.877 2.947-4.428 2.947-7.089v-59.432c18.541-17.934 57.124-52.971 99.317-93.077l104.964 181.779c3.282 5.684 11.076 6.725 15.731 2.071l42.43-42.43c2.47-2.471 3.473-6.051 2.643-9.445l-15.157-62.01 34.175-34.175c3.905-3.905 3.905-10.237 0-14.143-3.906-3.905-10.236-3.905-14.143 0l-25.588 25.588-11.111-45.456 29.622-29.631c3.904-3.906 3.903-10.237-.002-14.142-3.907-3.905-10.237-3.903-14.143.002l-21.033 21.04-21.1-86.321c11.606-12.436 22.375-24.377 32.044-35.541 3.616-4.174 3.163-10.49-1.012-14.106-4.173-3.614-10.488-3.164-14.105 1.012-10.542 12.171-22.418 25.292-35.3 38.999-78.1 83.125-173.41 167.353-205.241 198.635-1.913 1.88-2.99 4.45-2.99 7.132v59.493l-26.881 26.742-19.39-85.857 38.812-38.816c3.905-3.905 3.905-10.237 0-14.143-3.906-3.905-10.236-3.905-14.143 0l-38.251 38.255-87.302-19.714 26.741-26.88h59.493c2.682 0 5.252-1.078 7.132-2.99 29.972-30.493 115.714-127.308 198.691-205.249 43.136-40.493 79.204-69.874 107.202-87.328 29.332-18.285 50.153-23.695 58.622-15.224 8.309 8.312 3.396 28.43-13.833 56.648-2.878 4.714-1.39 10.868 3.324 13.746s10.868 1.39 13.746-3.324c15.425-25.265 31.732-60.375 10.906-81.211-21.331-21.33-57.842-3.506-83.347 12.393-28.207 17.584-63.933 46.475-106.24 85.912l-85.038-20.788 20.505-20.505c3.905-3.905 3.905-10.237 0-14.142-3.906-3.905-10.236-3.905-14.143 0l-29.09 29.091-45.454-11.112 25.047-25.047c3.905-3.905 3.905-10.237 0-14.143-3.906-3.905-10.236-3.905-14.143 0l-33.634 33.634-63.43-15.505c-3.389-.829-6.976.172-9.446 2.644l-42.42 42.43c-4.637 4.639-3.627 12.439 2.071 15.73l181.836 105c-40.518 42.599-75.259 80.896-93.084 99.34h-59.432c-2.661 0-5.213 1.061-7.089 2.947l-42.43 42.651c-5.536 5.565-2.776 15.076 4.887 16.807zm379.444-160.327 54.079 221.24-29.236 29.236-100.884-174.715c28.896-27.763 53.947-52.721 76.041-75.761zm-313.618-146.457 221.368 54.115c-23.044 22.089-48.02 47.141-75.818 76.047l-174.779-100.927z" fill="#ffffff" data-original="#ffffff"></path></g></svg>