<svg xmlns="http://www.w3.org/2000/svg" version="1.1" xmlns:xlink="http://www.w3.org/1999/xlink" xmlns:svgjs="http://svgjs.com/svgjs" width="512" height="512" x="0" y="0" viewBox="0 0 512 512" style="enable-background:new 0 0 512 512" xml:space="preserve" class=""><g><g xmlns="http://www.w3.org/2000/svg"><g><g><path d="m502 248.245c-11.871 0-22.819 4.034-31.542 10.804v-33.4c0-19.217-15.635-34.851-34.852-34.851h-223.117c-5.483 0-10.674 1.273-15.294 3.539-2.847-18.745-19.072-33.156-38.6-33.156h-87.053v-.523c0-33.935-27.607-61.543-61.542-61.543-5.523 0-10 4.477-10 10v293.768c0 5.523 4.477 10 10 10h51.542c5.522 0 10-4.477 10-10v-37.233h378.916v37.234c0 5.523 4.477 10 10 10h41.542c5.522 0 10-4.477 10-10v-144.639c0-5.523-4.478-10-10-10zm-343.404-67.063c10.5 0 19.043 8.543 19.043 19.043v30.285h-106.097v-49.328zm-107.054 211.702h-31.542v-272.551c18.092 4.487 31.542 20.865 31.542 40.326zm20-47.234v-95.14h106.097v55.182c0 5.523 4.477 10 10 10h108.794c5.523 0 10-4.477 10-10s-4.477-10-10-10h-98.794v-70.042c0-8.189 6.662-14.851 14.851-14.851h223.117c8.189 0 14.852 6.662 14.852 14.851v70.042h-63.613c-5.522 0-10 4.477-10 10s4.478 10 10 10h63.613v29.958zm420.458 47.234h-21.542v-93.096c0-13.899 9.036-25.727 21.542-29.918z" fill="#fff" data-original="#000000" class=""></path></g><g><path d="m341.819 315.69c-4.232 0-8.078-2.762-9.453-6.758-1.357-3.944-.042-8.482 3.239-11.071 3.24-2.557 7.81-2.845 11.354-.739 3.564 2.118 5.468 6.375 4.68 10.444-.902 4.655-5.071 8.124-9.82 8.124z" fill="#fff" data-original="#000000" class=""></path></g></g></g></g></svg>