<?xml version="1.0" standalone="no"?>
<!DOCTYPE svg PUBLIC "-//W3C//DTD SVG 20010904//EN"
 "http://www.w3.org/TR/2001/REC-SVG-20010904/DTD/svg10.dtd">
<svg version="1.0" xmlns="http://www.w3.org/2000/svg"
 width="250" height="90" viewBox="0 0 483.000000 100.000000"
 preserveAspectRatio="xMidYMid meet">

<g transform="translate(0.000000,100.000000) scale(0.100000,-0.100000)"
fill="#1877f2" stroke="none">
<path d="M333 980 c-120 -5 -143 -14 -187 -74 -17 -23 -22 -45 -24 -131 l-4
-104 -51 -3 -52 -3 -3 -77 -3 -77 53 -3 53 -3 3 -242 2 -243 95 0 95 0 0 245
0 245 65 0 c73 0 69 -5 79 103 l6 57 -75 0 -75 0 0 64 c0 78 10 88 91 94 l59
4 0 74 c0 40 -3 74 -7 76 -5 2 -58 1 -120 -2z"/>
<path d="M2368 952 l-88 -15 0 -452 0 -452 111 -13 c157 -18 276 -9 348 27
102 51 125 120 119 352 -4 178 -17 212 -91 250 -40 19 -62 23 -135 23 -48 0
-101 -5 -119 -10 -17 -6 -34 -8 -37 -4 -3 3 -6 74 -6 159 0 84 -3 152 -7 152
-5 -1 -47 -8 -95 -17z m275 -460 c14 -13 17 -34 17 -142 0 -165 -5 -173 -114
-178 l-76 -4 0 161 0 160 48 15 c52 16 98 12 125 -12z"/>
<path d="M4313 951 l-93 -14 0 -459 0 -458 95 0 95 0 0 151 c0 82 4 148 8 145
5 -3 48 -70 97 -150 l88 -146 104 0 105 0 -20 33 c-11 17 -54 89 -96 159 -42
69 -76 132 -76 139 0 7 40 75 89 153 48 78 91 147 95 154 6 9 -16 12 -96 12
l-103 0 -37 -58 c-20 -31 -62 -97 -95 -147 l-58 -90 -5 295 -5 296 -92 -15z"/>
<path d="M3794 669 c-173 -21 -230 -111 -222 -353 5 -148 18 -188 82 -244 48
-42 103 -57 217 -56 83 0 102 3 152 27 100 49 127 114 127 302 0 78 -5 139
-15 171 -23 78 -97 137 -186 149 -85 11 -95 12 -155 4z m111 -164 c21 -8 39
-25 45 -40 14 -36 13 -218 -1 -248 -23 -51 -109 -63 -156 -23 -26 23 -28 29
-31 128 -5 128 9 172 60 187 45 13 44 13 83 -4z"/>
<path d="M537 663 c-2 -5 -7 -40 -11 -79 l-7 -72 118 -4 c65 -2 128 -9 139
-16 15 -8 23 -25 27 -54 3 -23 3 -46 1 -50 -3 -4 -49 -8 -102 -8 -114 0 -163
-12 -202 -48 -56 -52 -64 -172 -17 -244 12 -18 42 -43 67 -56 38 -20 55 -23
112 -18 37 2 89 14 114 26 37 16 49 18 56 8 4 -7 8 -16 8 -20 0 -5 36 -8 81
-8 l81 0 -4 252 c-3 248 -4 254 -28 297 -31 55 -77 80 -167 92 -84 10 -260 12
-266 2z m267 -423 c17 -16 -4 -68 -32 -79 -58 -22 -97 -17 -118 14 -21 32 -7
71 28 78 30 5 111 -4 122 -13z"/>
<path d="M1238 656 c-77 -28 -124 -76 -149 -151 -15 -44 -19 -246 -6 -306 4
-20 21 -57 38 -82 59 -89 184 -123 362 -97 l87 12 0 79 0 79 -47 -8 c-27 -4
-86 -7 -131 -7 -117 0 -122 7 -122 169 0 83 4 128 13 140 20 28 88 38 180 26
45 -5 87 -10 94 -10 9 0 13 21 13 74 0 61 -3 75 -17 81 -36 15 -276 16 -315 1z"/>
<path d="M1789 657 c-56 -21 -97 -55 -122 -100 -20 -39 -22 -56 -22 -207 0
-150 2 -169 22 -205 28 -53 58 -79 118 -106 63 -28 191 -36 308 -19 l87 12 0
80 c0 79 0 80 -22 74 -50 -14 -246 -19 -277 -7 -31 13 -55 56 -49 88 3 17 18
18 186 21 l182 2 0 93 c0 146 -28 211 -110 257 -39 21 -60 25 -155 27 -74 2
-122 -1 -146 -10z m201 -154 c13 -17 20 -38 18 -57 l-3 -31 -85 0 -85 0 -3 32
c-5 49 33 83 92 83 36 0 48 -5 66 -27z"/>
<path d="M3077 655 c-61 -23 -93 -52 -121 -107 -24 -49 -26 -61 -26 -198 0
-83 5 -162 11 -181 20 -58 59 -100 118 -127 49 -23 69 -26 156 -26 82 0 109 4
150 22 65 30 89 53 116 115 20 46 23 69 23 192 1 134 0 143 -27 197 -31 64
-66 94 -134 114 -59 18 -216 17 -266 -1z m211 -171 c20 -23 22 -35 22 -145 0
-115 -1 -121 -26 -146 -22 -22 -32 -25 -77 -20 -79 7 -87 23 -87 171 0 114 2
124 23 143 42 39 107 38 145 -3z"/>
</g>
</svg>
