<svg width="80" height="80" viewBox="0 0 106 25" fill="none" xmlns="http://www.w3.org/2000/svg">
<path d="M0.818182 24V0.727272H3.63636V21.5H14.4545V24H0.818182ZM21.2415 24H18.2869L26.8324 0.727272H29.7415L38.2869 24H35.3324L28.3778 4.40909H28.196L21.2415 24ZM22.3324 14.9091H34.2415V17.4091H22.3324V14.9091ZM54.6392 6.54545C54.5028 5.39394 53.9498 4.5 52.9801 3.86364C52.0104 3.22727 50.821 2.90909 49.4119 2.90909C48.3816 2.90909 47.4801 3.07576 46.7074 3.40909C45.9422 3.74242 45.3438 4.20076 44.9119 4.78409C44.4877 5.36742 44.2756 6.0303 44.2756 6.77273C44.2756 7.39394 44.4233 7.92803 44.7188 8.375C45.0218 8.81439 45.4081 9.18182 45.8778 9.47727C46.3475 9.76515 46.84 10.0038 47.3551 10.1932C47.8703 10.375 48.3438 10.5227 48.7756 10.6364L51.1392 11.2727C51.7453 11.4318 52.4195 11.6515 53.1619 11.9318C53.9119 12.2121 54.6278 12.5947 55.3097 13.0795C55.9991 13.5568 56.5672 14.1705 57.0142 14.9205C57.4612 15.6705 57.6847 16.5909 57.6847 17.6818C57.6847 18.9394 57.3551 20.0758 56.696 21.0909C56.0445 22.1061 55.09 22.9129 53.8324 23.5114C52.5824 24.1098 51.0634 24.4091 49.2756 24.4091C47.6089 24.4091 46.1657 24.1402 44.946 23.6023C43.7339 23.0644 42.7794 22.3144 42.0824 21.3523C41.393 20.3902 41.0028 19.2727 40.9119 18H43.821C43.8968 18.8788 44.1922 19.6061 44.7074 20.1818C45.2301 20.75 45.8892 21.1742 46.6847 21.4545C47.4877 21.7273 48.3513 21.8636 49.2756 21.8636C50.3513 21.8636 51.3172 21.6894 52.1733 21.3409C53.0294 20.9848 53.7074 20.4924 54.2074 19.8636C54.7074 19.2273 54.9574 18.4848 54.9574 17.6364C54.9574 16.8636 54.7415 16.2348 54.3097 15.75C53.8778 15.2652 53.3097 14.8712 52.6051 14.5682C51.9006 14.2652 51.1392 14 50.321 13.7727L47.4574 12.9545C45.6392 12.4318 44.1998 11.6856 43.1392 10.7159C42.0786 9.74621 41.5483 8.47727 41.5483 6.90909C41.5483 5.60606 41.9006 4.4697 42.6051 3.5C43.3172 2.52273 44.2718 1.76515 45.4688 1.22727C46.6733 0.681817 48.018 0.40909 49.5028 0.40909C51.0028 0.40909 52.3362 0.678029 53.5028 1.21591C54.6695 1.74621 55.5938 2.47348 56.2756 3.39773C56.965 4.32197 57.3286 5.37121 57.3665 6.54545H54.6392ZM75.0455 6.54545C74.9091 5.39394 74.3561 4.5 73.3864 3.86364C72.4167 3.22727 71.2273 2.90909 69.8182 2.90909C68.7879 2.90909 67.8864 3.07576 67.1136 3.40909C66.3485 3.74242 65.75 4.20076 65.3182 4.78409C64.8939 5.36742 64.6818 6.0303 64.6818 6.77273C64.6818 7.39394 64.8295 7.92803 65.125 8.375C65.428 8.81439 65.8144 9.18182 66.2841 9.47727C66.7538 9.76515 67.2462 10.0038 67.7614 10.1932C68.2765 10.375 68.75 10.5227 69.1818 10.6364L71.5455 11.2727C72.1515 11.4318 72.8258 11.6515 73.5682 11.9318C74.3182 12.2121 75.0341 12.5947 75.7159 13.0795C76.4053 13.5568 76.9735 14.1705 77.4205 14.9205C77.8674 15.6705 78.0909 16.5909 78.0909 17.6818C78.0909 18.9394 77.7614 20.0758 77.1023 21.0909C76.4508 22.1061 75.4962 22.9129 74.2386 23.5114C72.9886 24.1098 71.4697 24.4091 69.6818 24.4091C68.0152 24.4091 66.572 24.1402 65.3523 23.6023C64.1402 23.0644 63.1856 22.3144 62.4886 21.3523C61.7992 20.3902 61.4091 19.2727 61.3182 18H64.2273C64.303 18.8788 64.5985 19.6061 65.1136 20.1818C65.6364 20.75 66.2955 21.1742 67.0909 21.4545C67.8939 21.7273 68.7576 21.8636 69.6818 21.8636C70.7576 21.8636 71.7235 21.6894 72.5795 21.3409C73.4356 20.9848 74.1136 20.4924 74.6136 19.8636C75.1136 19.2273 75.3636 18.4848 75.3636 17.6364C75.3636 16.8636 75.1477 16.2348 74.7159 15.75C74.2841 15.2652 73.7159 14.8712 73.0114 14.5682C72.3068 14.2652 71.5455 14 70.7273 13.7727L67.8636 12.9545C66.0455 12.4318 64.6061 11.6856 63.5455 10.7159C62.4848 9.74621 61.9545 8.47727 61.9545 6.90909C61.9545 5.60606 62.3068 4.4697 63.0114 3.5C63.7235 2.52273 64.678 1.76515 65.875 1.22727C67.0795 0.681817 68.4242 0.40909 69.9091 0.40909C71.4091 0.40909 72.7424 0.678029 73.9091 1.21591C75.0758 1.74621 76 2.47348 76.6818 3.39773C77.3712 4.32197 77.7348 5.37121 77.7727 6.54545H75.0455ZM85.5426 0.727272V24H82.7244V0.727272H85.5426ZM91.1932 24V0.727272H105.239V3.22727H94.0114V11.0909H104.511V13.5909H94.0114V21.5H105.42V24H91.1932Z" fill="black"/>
</svg>
